<svg width="12" height="12" viewBox="0 0 12 12" fill="none" xmlns="http://www.w3.org/2000/svg">
<path d="M10.165 6.54833C10.1884 6.37333 10.2 6.1925 10.2 6C10.2 5.81333 10.1884 5.62666 10.1592 5.45166L11.3434 4.52999C11.3944 4.48794 11.4293 4.42948 11.442 4.3646C11.4548 4.29972 11.4447 4.23242 11.4134 4.17416L10.2934 2.2375C10.2604 2.17891 10.2078 2.13388 10.1448 2.11039C10.0818 2.0869 10.0125 2.08647 9.94921 2.10916L8.55504 2.66916C8.26337 2.4475 7.95421 2.26083 7.61004 2.12083L7.40004 0.639162C7.38971 0.572388 7.35577 0.511533 7.3044 0.467648C7.25302 0.423764 7.18761 0.39976 7.12004 0.399996H4.88004C4.74004 0.399996 4.62921 0.499162 4.60587 0.639162L4.39587 2.12083C4.05171 2.26083 3.73671 2.45333 3.45087 2.66916L2.05671 2.10916C1.92837 2.0625 1.78254 2.10916 1.71254 2.2375L0.598373 4.17416C0.528373 4.29666 0.551707 4.44833 0.668373 4.52999L1.85254 5.45166C1.82337 5.62666 1.80004 5.81916 1.80004 6C1.80004 6.18083 1.81171 6.37333 1.84087 6.54833L0.656707 7.47C0.605679 7.51205 0.570813 7.57051 0.558049 7.63539C0.545285 7.70027 0.555413 7.76758 0.586707 7.82583L1.70671 9.7625C1.77671 9.89083 1.92254 9.93166 2.05087 9.89083L3.44504 9.33083C3.73671 9.5525 4.04587 9.73916 4.39004 9.87916L4.60004 11.3608C4.62921 11.5008 4.74004 11.6 4.88004 11.6H7.12004C7.26004 11.6 7.37671 11.5008 7.39421 11.3608L7.60421 9.87916C7.94837 9.73916 8.26337 9.5525 8.54921 9.33083L9.94337 9.89083C10.0717 9.9375 10.2175 9.89083 10.2875 9.7625L11.4075 7.82583C11.4775 7.6975 11.4484 7.55166 11.3375 7.47L10.165 6.54833ZM6.00004 8.1C4.84504 8.1 3.90004 7.155 3.90004 6C3.90004 4.845 4.84504 3.9 6.00004 3.9C7.15504 3.9 8.10004 4.845 8.10004 6C8.10004 7.155 7.15504 8.1 6.00004 8.1Z" fill="#A8A9BE"/>
</svg>
