<svg width="10" height="14" viewBox="0 0 10 14" fill="none" xmlns="http://www.w3.org/2000/svg">
<path d="M4.99998 2.33334V0.583336L2.66665 2.91667L4.99998 5.25V3.5C6.93081 3.5 8.49998 5.06917 8.49998 7C8.49998 7.58917 8.35415 8.14917 8.09165 8.63334L8.94331 9.485C9.41596 8.74237 9.66689 7.88029 9.66665 7C9.66665 4.42167 7.57831 2.33334 4.99998 2.33334ZM4.99998 10.5C3.06915 10.5 1.49998 8.93084 1.49998 7C1.49998 6.41084 1.64581 5.85084 1.90831 5.36667L1.05665 4.515C0.584002 5.25764 0.333068 6.11972 0.333313 7C0.333313 9.57834 2.42165 11.6667 4.99998 11.6667V13.4167L7.33331 11.0833L4.99998 8.75V10.5Z" fill="#A8A9BE"/>
</svg>
