<svg width="8" height="8" viewBox="0 0 8 8" fill="none" xmlns="http://www.w3.org/2000/svg">
<path d="M4 0.125C1.79032 0.125 0 1.85938 0 4C0 6.14062 1.79032 7.875 4 7.875C6.20968 7.875 8 6.14062 8 4C8 1.85938 6.20968 0.125 4 0.125ZM4 7.125C2.22097 7.125 0.774194 5.72344 0.774194 4C0.774194 2.27656 2.22097 0.875 4 0.875C5.77903 0.875 7.22581 2.27656 7.22581 4C7.22581 5.72344 5.77903 7.125 4 7.125ZM2.70968 3.75C2.99516 3.75 3.22581 3.52656 3.22581 3.25C3.22581 2.97344 2.99516 2.75 2.70968 2.75C2.42419 2.75 2.19355 2.97344 2.19355 3.25C2.19355 3.52656 2.42419 3.75 2.70968 3.75ZM5.29032 3.75C5.57581 3.75 5.80645 3.52656 5.80645 3.25C5.80645 2.97344 5.57581 2.75 5.29032 2.75C5.00484 2.75 4.77419 2.97344 4.77419 3.25C4.77419 3.52656 5.00484 3.75 5.29032 3.75ZM5.35484 4.88438C5.01935 5.275 4.52419 5.5 4 5.5C3.47581 5.5 2.98064 5.27656 2.64516 4.88438C2.50806 4.725 2.2629 4.70469 2.1 4.83594C1.93548 4.96875 1.91452 5.20469 2.05 5.36406C2.53387 5.92656 3.24516 6.24844 4 6.24844C4.75484 6.24844 5.46613 5.92656 5.95 5.36406C6.0871 5.20469 6.06452 4.96875 5.9 4.83594C5.7371 4.70469 5.49194 4.725 5.35484 4.88438Z" fill="#7E83A3"/>
</svg>
