<svg xmlns="http://www.w3.org/2000/svg" viewBox="0 0 143.6776 137.956">
  <title>teleport-logo-mark-one-colour-rgb</title>
  <g id="black-rgb">
    <g id="logoMark">
      <path id="logoMark_PathItem_" data-name="logoMark &lt;PathItem&gt;" d="M5.11,16.9341H17.5842a2.6612,2.6612,0,0,1,2.6612,2.6612V32.0684A2.6611,2.6611,0,0,1,17.5842,34.73H5.1108A2.6612,2.6612,0,0,1,2.45,32.0684V19.595A2.6609,2.6609,0,0,1,5.11,16.9341Z" transform="translate(-16.3216 20.3114) rotate(-55.0017)"/>
      <path id="logoMark_PathItem_2" data-name="logoMark &lt;PathItem&gt;" d="M91.0649,2.9226H101.23a2.8738,2.8738,0,0,1,2.8738,2.8738V15.9618a2.8738,2.8738,0,0,1-2.8738,2.8738H91.0656a2.8745,2.8745,0,0,1-2.8745-2.8745V5.7965a2.8738,2.8738,0,0,1,2.8738-2.8738Z" transform="translate(32.0884 83.3989) rotate(-55.0004)"/>
      <path id="logoMark_PathItem_3" data-name="logoMark &lt;PathItem&gt;" d="M12.76,48.1314h7.1438a2.3958,2.3958,0,0,1,2.3958,2.3958v7.1439a2.3946,2.3946,0,0,1-2.3946,2.3946H12.7589a2.395,2.395,0,0,1-2.395-2.395V50.5272A2.3958,2.3958,0,0,1,12.76,48.1314Z" transform="translate(-37.3511 36.448) rotate(-55.0011)"/>
      <path id="logoMark_PathItem_4" data-name="logoMark &lt;PathItem&gt;" d="M44.4356,69.6479H54.7289a2.5868,2.5868,0,0,1,2.5868,2.5868V82.5279a2.5869,2.5869,0,0,1-2.5869,2.5869H44.4355a2.5868,2.5868,0,0,1-2.5868-2.5868V72.2349a2.587,2.587,0,0,1,2.587-2.587Z" transform="translate(-42.2442 73.6157) rotate(-55.002)"/>
      <path id="logoMark_PathItem_5" data-name="logoMark &lt;PathItem&gt;" d="M109.4989,76.0649l5.9036-8.4319a2.5852,2.5852,0,0,0-.6355-3.6026l-8.432-5.9039a2.5863,2.5863,0,0,0-3.6026.6352L96.8289,67.194a2.5856,2.5856,0,0,0,.6352,3.6026l8.431,5.9039A2.5884,2.5884,0,0,0,109.4989,76.0649Z"/>
      <path id="logoMark_PathItem_6" data-name="logoMark &lt;PathItem&gt;" d="M56.933,127.32h5.1521a2.2358,2.2358,0,0,1,2.2358,2.2358v5.1526a2.2351,2.2351,0,0,1-2.2351,2.2351H56.9321a2.2351,2.2351,0,0,1-2.2351-2.2351V129.556a2.236,2.236,0,0,1,2.236-2.236Z" transform="translate(-82.8603 105.0923) rotate(-55.0005)"/>
      <path id="logoMark_PathItem_7" data-name="logoMark &lt;PathItem&gt;" d="M113.29,117.8832h5.1529a2.2354,2.2354,0,0,1,2.2354,2.2354v5.1532a2.235,2.235,0,0,1-2.235,2.235H113.29a2.2357,2.2357,0,0,1-2.2357-2.2357v-5.1524A2.2354,2.2354,0,0,1,113.29,117.8832Z" transform="translate(-51.0954 147.2479) rotate(-55.0054)"/>
      <path id="logoMark_PathItem_8" data-name="logoMark &lt;PathItem&gt;" d="M51.0274,99.5223h7.0773a2.587,2.587,0,0,1,2.587,2.587v7.0769a2.5867,2.5867,0,0,1-2.5867,2.5867h-7.077a2.5866,2.5866,0,0,1-2.5866-2.5866v-7.078A2.586,2.586,0,0,1,51.0274,99.5223Z" transform="translate(-63.27 89.7267) rotate(-54.9892)"/>
      <path id="logoMark_PathItem_9" data-name="logoMark &lt;PathItem&gt;" d="M107.5614,89.5539h7.0767a2.5871,2.5871,0,0,1,2.5871,2.5871v7.0767a2.587,2.587,0,0,1-2.587,2.587H107.562a2.587,2.587,0,0,1-2.587-2.587V92.14A2.5865,2.5865,0,0,1,107.5614,89.5539Z" transform="translate(-31.0061 131.7846) rotate(-54.9907)"/>
      <path id="logoMark_PathItem_10" data-name="logoMark &lt;PathItem&gt;" d="M121.9007.987h5.0266a2.3953,2.3953,0,0,1,2.3953,2.3953v5.025a2.3959,2.3959,0,0,1-2.3959,2.3959h-5.0261a2.3952,2.3952,0,0,1-2.3952-2.3952V3.3824A2.3954,2.3954,0,0,1,121.9007.987Z" transform="translate(48.2298 104.4322) rotate(-55.0033)"/>
      <path id="logoMark_PathItem_11" data-name="logoMark &lt;PathItem&gt;" d="M142.5421,29.9334l-13.6659-9.5686a2.66,2.66,0,0,0-3.706.6533l-8.9179,12.7351a2.6616,2.6616,0,0,1-3.7063.6538L100.75,26.1479a2.6613,2.6613,0,0,0-3.706.6533L88.84,38.5187a2.6609,2.6609,0,0,1-3.7061.6541l-12.6687-8.87a2.6617,2.6617,0,0,1-.6528-3.7069L79.4135,15.741a2.6608,2.6608,0,0,0-.6536-3.7066L67.7576,4.3309a2.6608,2.6608,0,0,0-3.7061.6536L56.3488,15.9863a2.6609,2.6609,0,0,0,.6538,3.7066l10.8546,7.6A2.6619,2.6619,0,0,1,68.5113,31L59.12,44.4111a2.6621,2.6621,0,0,1-3.7068.6534L44.548,37.4569a2.6611,2.6611,0,0,1-.6539-3.7061l9.3836-13.4017a2.6611,2.6611,0,0,0-.6541-3.7061L39.116,7.1832a2.6615,2.6615,0,0,0-3.7068.6535L25.95,21.3465a2.6608,2.6608,0,0,0,.6536,3.706l13.4007,9.3839a2.6611,2.6611,0,0,1,.653,3.7065l-7.7926,11.13a2.662,2.662,0,0,0,.6539,3.7068l11.2376,7.8686a2.6623,2.6623,0,0,0,3.7069-.6541l7.683-10.9724a2.66,2.66,0,0,1,3.7061-.6536L71.8531,56.97a2.6626,2.6626,0,0,1,.6541,3.7068L63.9184,72.9424a2.6606,2.6606,0,0,0,.6536,3.706l12.3443,8.6438a2.6622,2.6622,0,0,1,.6539,3.7063l-8.5338,12.1877a2.6605,2.6605,0,0,0,.6536,3.7063l13.6654,9.5686c.0078.0052.0178.0057.0262.011l.1184.0838a2.3361,2.3361,0,0,1,.575,3.2538l-6.6731,9.528a2.3351,2.3351,0,0,0,.5734,3.2537l9.6582,6.7624a2.3369,2.3369,0,0,0,3.2532-.5739l6.7617-9.6577a2.337,2.337,0,0,0-.5739-3.2534l-9.5283-6.6716a2.3365,2.3365,0,0,1-.5739-3.254l3.926-5.6065-.004-.0015,5.7365-8.1936a2.6614,2.6614,0,0,0-.653-3.7066L83.7909,87.9018a2.6616,2.6616,0,0,1-.6541-3.7066l8.6425-12.3438a2.6614,2.6614,0,0,0-.6538-3.7065L78.86,59.5558a2.6606,2.6606,0,0,1-.6528-3.706L86.09,44.593a2.6609,2.6609,0,0,1,3.7061-.6533l11.7167,8.2046a2.6624,2.6624,0,0,0,3.7071-.6536l8.2585-11.7953a2.6618,2.6618,0,0,1,3.7069-.6536L129.92,47.9592a2.6606,2.6606,0,0,0,3.706-.6531l9.57-13.6664A2.6605,2.6605,0,0,0,142.5421,29.9334Z"/>
    </g>
  </g>
</svg>
